<?xml version="1.0" standalone="no"?>
<!DOCTYPE svg PUBLIC "-//W3C//DTD SVG 20010904//EN"
 "http://www.w3.org/TR/2001/REC-SVG-20010904/DTD/svg10.dtd">
<svg version="1.0" xmlns="http://www.w3.org/2000/svg"
 width="720.000000pt" height="1080.000000pt" viewBox="0 0 720.000000 1080.000000"
 preserveAspectRatio="xMidYMid meet">

<g transform="translate(0.000000,1080.000000) scale(0.100000,-0.100000)"
fill="#000000" stroke="none">
<path d="M4626 7779 c-184 -63 -282 -223 -255 -414 31 -218 226 -357 444 -316
l60 11 40 -42 c42 -45 212 -237 328 -371 l67 -78 0 -104 0 -105 -35 -15 c-20
-8 -55 -30 -80 -50 -172 -141 -191 -398 -42 -561 28 -31 75 -69 104 -86 l53
-30 0 -86 0 -85 -138 -141 c-76 -78 -165 -170 -198 -205 l-61 -63 -71 17
c-229 56 -429 -75 -473 -310 -21 -116 30 -268 115 -342 23 -19 64 -47 91 -61
45 -24 61 -27 160 -27 104 0 114 2 176 32 79 39 140 102 177 181 23 49 27 70
27 147 0 61 -6 108 -19 148 l-19 58 210 212 c140 140 216 225 227 251 11 26
16 69 16 136 0 54 3 106 6 115 4 9 33 30 66 46 76 39 142 105 176 177 24 51
27 68 27 172 0 103 -3 120 -25 164 -38 75 -112 151 -183 186 l-62 31 0 142 c0
123 -3 147 -20 179 -11 20 -101 128 -201 240 -99 111 -196 220 -214 241 l-33
38 22 65 c26 79 28 190 5 262 -34 105 -140 207 -253 242 -80 25 -140 25 -215
-1z m190 -240 c59 -36 80 -118 48 -185 -25 -52 -62 -74 -127 -74 -88 0 -137
53 -137 149 0 42 5 56 31 86 50 57 117 65 185 24z m691 -1419 c65 -39 87 -110
59 -185 -32 -84 -126 -119 -203 -75 -22 12 -47 35 -56 50 -21 36 -22 121 -2
161 34 65 135 90 202 49z m-696 -1302 c42 -23 79 -85 79 -130 0 -41 -42 -109
-80 -129 -19 -11 -54 -19 -79 -19 -38 0 -49 5 -87 44 -30 29 -44 53 -46 72 -4
90 17 134 77 164 52 26 88 25 136 -2z"/>
<path d="M2715 7771 c-81 -37 -58 15 -435 -976 -21 -55 -74 -194 -118 -310
-87 -227 -333 -876 -467 -1230 -273 -722 -315 -838 -315 -870 0 -50 23 -58
173 -63 152 -4 175 5 207 80 11 26 70 188 130 359 61 171 117 324 126 340 l15
29 402 0 c418 0 427 1 427 41 0 28 -86 220 -114 256 l-27 33 -284 0 c-275 0
-285 1 -285 19 0 24 50 164 208 586 110 295 221 593 432 1160 45 121 87 226
92 233 7 8 44 12 118 12 l108 0 32 -82 c18 -46 67 -176 110 -291 43 -114 85
-218 93 -231 19 -28 66 -36 211 -36 161 0 153 -12 96 148 -136 385 -261 719
-278 742 -10 14 -34 35 -52 48 -32 21 -39 22 -299 22 -237 0 -270 -2 -306 -19z"/>
<path d="M3743 6641 c-12 -5 -24 -18 -27 -28 -8 -29 -53 -192 -75 -273 -11
-41 -69 -256 -130 -477 -61 -221 -108 -409 -105 -417 13 -33 160 -51 197 -23
11 7 30 62 51 142 18 72 86 321 150 555 123 448 136 503 117 514 -19 12 -154
17 -178 7z"/>
<path d="M2905 6314 c-132 -135 -244 -256 -249 -269 -8 -21 -2 -32 47 -87 118
-132 453 -468 465 -468 16 0 142 119 142 133 0 6 -53 65 -117 131 -65 67 -151
156 -193 198 l-74 78 192 193 c106 106 192 198 192 204 0 7 -26 39 -58 72 -40
42 -65 61 -82 61 -19 0 -80 -57 -265 -246z"/>
<path d="M4066 6498 c-31 -34 -56 -66 -56 -71 0 -6 86 -98 192 -204 l192 -194
-192 -192 c-106 -106 -192 -199 -192 -207 0 -24 112 -130 137 -130 15 0 97 78
267 253 202 207 246 257 246 280 0 23 -36 65 -196 230 -284 292 -289 297 -317
297 -18 0 -41 -18 -81 -62z"/>
<path d="M3597 5223 c-4 -3 -7 -16 -7 -28 0 -17 243 -645 308 -795 31 -72 38
-75 187 -78 145 -4 175 3 175 42 0 13 -40 124 -89 247 -49 123 -119 303 -156
399 -38 96 -79 184 -91 197 -22 22 -30 23 -172 23 -82 0 -152 -3 -155 -7z"/>
<path d="M1485 3703 c-50 -129 -126 -324 -210 -541 l-24 -63 90 3 91 3 27 70
27 70 154 0 154 0 27 -70 27 -70 87 -3 c80 -3 87 -1 83 15 -3 10 -69 179 -147
376 l-143 357 -92 0 -93 0 -58 -147z m199 -182 c25 -69 46 -126 46 -128 0 -5
-86 -3 -134 3 -33 5 -46 11 -46 23 0 9 16 59 35 111 20 52 38 101 41 109 2 8
6 12 8 10 2 -2 25 -60 50 -128z"/>
<path d="M2180 3476 l0 -373 31 -7 c17 -3 49 -6 69 -6 75 0 70 -30 70 386 l0
374 -85 0 -85 0 0 -374z"/>
<path d="M2562 3473 l3 -378 54 -3 c30 -2 65 -1 78 3 l23 5 0 231 c0 197 2
230 14 220 8 -7 56 -75 107 -152 51 -77 97 -138 103 -136 5 2 53 65 107 141
53 75 101 142 108 149 8 8 11 -47 11 -221 l0 -232 80 0 80 0 0 375 0 375 -84
0 -84 0 -107 -165 c-59 -91 -108 -165 -110 -165 -1 0 -51 74 -110 165 l-107
165 -84 0 -84 0 2 -377z"/>
<path d="M3640 3494 c-78 -196 -145 -365 -148 -376 -4 -18 1 -19 83 -16 l87 3
28 70 28 70 150 3 150 3 30 -73 31 -73 90 -3 c50 -1 91 -1 91 2 0 2 -18 49
-40 103 -23 54 -91 221 -152 371 l-112 272 -86 0 -87 0 -143 -356z m240 142
c0 -2 18 -54 40 -116 22 -62 40 -117 40 -123 0 -10 -167 -4 -177 7 -7 7 79
236 88 236 5 0 9 -2 9 -4z"/>
<path d="M4400 3475 l0 -375 80 0 80 0 0 375 0 375 -80 0 -80 0 0 -375z"/>
<path d="M4720 3780 l0 -70 98 0 c53 0 103 -4 109 -8 10 -6 13 -83 15 -307 l3
-300 80 0 80 0 3 302 2 302 103 3 102 3 3 73 3 72 -301 0 -300 0 0 -70z"/>
<path d="M5460 3786 c0 -36 4 -67 8 -70 5 -3 83 -8 175 -12 l166 -7 -40 -56
c-23 -31 -59 -78 -80 -106 -22 -27 -85 -109 -140 -182 l-100 -131 3 -64 3 -63
295 0 295 0 3 78 3 77 -181 0 c-99 0 -180 2 -180 5 0 2 76 107 170 232 l170
228 0 68 0 67 -285 0 -285 0 0 -64z"/>
</g>
</svg>
